<mxfile host="app.diagrams.net" agent="Mozilla/5.0 (Windows NT 10.0; Win64; x64; rv:130.0) Gecko/20100101 Firefox/130.0" version="24.7.16">
  <diagram name="Page-1" id="gEela_NSro66PqeTd9uH">
    <mxGraphModel dx="1313" dy="698" grid="1" gridSize="10" guides="1" tooltips="1" connect="1" arrows="1" fold="1" page="1" pageScale="1" pageWidth="850" pageHeight="1100" math="0" shadow="0">
      <root>
        <mxCell id="0" />
        <mxCell id="1" parent="0" />
        <mxCell id="5uqBo0w8G_ZZDL4RvC4c-13" style="rounded=0;orthogonalLoop=1;jettySize=auto;html=1;exitX=1;exitY=0.3333333333333333;exitDx=0;exitDy=0;exitPerimeter=0;entryX=0;entryY=0.5;entryDx=0;entryDy=0;endArrow=none;endFill=0;" edge="1" parent="1" source="5uqBo0w8G_ZZDL4RvC4c-1" target="5uqBo0w8G_ZZDL4RvC4c-9">
          <mxGeometry relative="1" as="geometry" />
        </mxCell>
        <mxCell id="5uqBo0w8G_ZZDL4RvC4c-15" style="rounded=0;orthogonalLoop=1;jettySize=auto;html=1;exitX=1;exitY=0.3333333333333333;exitDx=0;exitDy=0;exitPerimeter=0;entryX=0;entryY=0.5;entryDx=0;entryDy=0;endArrow=none;endFill=0;" edge="1" parent="1" source="5uqBo0w8G_ZZDL4RvC4c-1" target="5uqBo0w8G_ZZDL4RvC4c-4">
          <mxGeometry relative="1" as="geometry" />
        </mxCell>
        <mxCell id="5uqBo0w8G_ZZDL4RvC4c-1" value="User" style="shape=umlActor;verticalLabelPosition=bottom;verticalAlign=top;html=1;" vertex="1" parent="1">
          <mxGeometry x="70" y="100" width="30" height="60" as="geometry" />
        </mxCell>
        <mxCell id="5uqBo0w8G_ZZDL4RvC4c-2" value="Select Scene" style="ellipse;whiteSpace=wrap;html=1;" vertex="1" parent="1">
          <mxGeometry x="300" y="150" width="120" height="80" as="geometry" />
        </mxCell>
        <mxCell id="5uqBo0w8G_ZZDL4RvC4c-3" value="Load Scene" style="ellipse;whiteSpace=wrap;html=1;" vertex="1" parent="1">
          <mxGeometry x="300" y="250" width="120" height="80" as="geometry" />
        </mxCell>
        <mxCell id="5uqBo0w8G_ZZDL4RvC4c-4" value="Change Time" style="ellipse;whiteSpace=wrap;html=1;" vertex="1" parent="1">
          <mxGeometry x="300" y="350" width="120" height="80" as="geometry" />
        </mxCell>
        <mxCell id="5uqBo0w8G_ZZDL4RvC4c-5" value="&lt;div&gt;Load Main Menu&lt;/div&gt;" style="ellipse;whiteSpace=wrap;html=1;" vertex="1" parent="1">
          <mxGeometry x="300" y="60" width="120" height="80" as="geometry" />
        </mxCell>
        <mxCell id="5uqBo0w8G_ZZDL4RvC4c-6" value="" style="endArrow=none;html=1;rounded=0;exitX=1;exitY=0.3333333333333333;exitDx=0;exitDy=0;exitPerimeter=0;" edge="1" parent="1" source="5uqBo0w8G_ZZDL4RvC4c-1">
          <mxGeometry width="50" height="50" relative="1" as="geometry">
            <mxPoint x="150" y="150" as="sourcePoint" />
            <mxPoint x="300" y="200" as="targetPoint" />
            <Array as="points" />
          </mxGeometry>
        </mxCell>
        <mxCell id="5uqBo0w8G_ZZDL4RvC4c-11" style="rounded=0;orthogonalLoop=1;jettySize=auto;html=1;exitX=0;exitY=0.3333333333333333;exitDx=0;exitDy=0;exitPerimeter=0;entryX=1;entryY=0.5;entryDx=0;entryDy=0;endArrow=none;endFill=0;" edge="1" parent="1">
          <mxGeometry relative="1" as="geometry">
            <mxPoint x="645" y="170.0000000000001" as="sourcePoint" />
            <mxPoint x="425" y="99.99999999999989" as="targetPoint" />
          </mxGeometry>
        </mxCell>
        <mxCell id="5uqBo0w8G_ZZDL4RvC4c-12" style="rounded=0;orthogonalLoop=1;jettySize=auto;html=1;exitX=0;exitY=0.3333333333333333;exitDx=0;exitDy=0;exitPerimeter=0;entryX=1;entryY=0.5;entryDx=0;entryDy=0;endArrow=none;endFill=0;" edge="1" parent="1" source="5uqBo0w8G_ZZDL4RvC4c-7" target="5uqBo0w8G_ZZDL4RvC4c-3">
          <mxGeometry relative="1" as="geometry" />
        </mxCell>
        <mxCell id="5uqBo0w8G_ZZDL4RvC4c-14" style="rounded=0;orthogonalLoop=1;jettySize=auto;html=1;exitX=0;exitY=0.3333333333333333;exitDx=0;exitDy=0;exitPerimeter=0;entryX=1;entryY=0.5;entryDx=0;entryDy=0;endArrow=none;endFill=0;" edge="1" parent="1" source="5uqBo0w8G_ZZDL4RvC4c-7" target="5uqBo0w8G_ZZDL4RvC4c-10">
          <mxGeometry relative="1" as="geometry" />
        </mxCell>
        <mxCell id="5uqBo0w8G_ZZDL4RvC4c-7" value="&lt;div&gt;System&lt;/div&gt;" style="shape=umlActor;verticalLabelPosition=bottom;verticalAlign=top;html=1;" vertex="1" parent="1">
          <mxGeometry x="640" y="150" width="30" height="60" as="geometry" />
        </mxCell>
        <mxCell id="5uqBo0w8G_ZZDL4RvC4c-9" value="Select Planet" style="ellipse;whiteSpace=wrap;html=1;" vertex="1" parent="1">
          <mxGeometry x="300" y="450" width="120" height="80" as="geometry" />
        </mxCell>
        <mxCell id="5uqBo0w8G_ZZDL4RvC4c-10" value="Display Information" style="ellipse;whiteSpace=wrap;html=1;" vertex="1" parent="1">
          <mxGeometry x="300" y="550" width="120" height="80" as="geometry" />
        </mxCell>
      </root>
    </mxGraphModel>
  </diagram>
</mxfile>
